<?xml version="1.0" standalone="no"?>
<!DOCTYPE svg PUBLIC "-//W3C//DTD SVG 20010904//EN"
 "http://www.w3.org/TR/2001/REC-SVG-20010904/DTD/svg10.dtd">
<svg version="1.0" xmlns="http://www.w3.org/2000/svg"
 width="401.000000pt" height="401.000000pt" viewBox="0 0 401.000000 401.000000"
 preserveAspectRatio="xMidYMid meet">
<metadata>
Created by potrace 1.11, written by Peter Selinger 2001-2013
</metadata>
<g transform="translate(0.000000,401.000000) scale(0.100000,-0.100000)"
fill="#000000" stroke="none">
<path d="M2 2003 l3 -1998 1998 -3 1997 -2 0 2000 0 2000 -2000 0 -2000 0 2
-1997z m2848 905 c1 -7 9 -74 20 -148 10 -74 18 -135 17 -136 -1 -1 -65 -17
-142 -36 l-140 -34 -12 -146 c-31 -373 -101 -610 -219 -737 -86 -93 -190 -144
-320 -157 l-64 -7 0 170 c0 170 0 170 24 181 13 6 37 30 53 54 75 111 122 306
139 576 l7 112 -222 0 -221 0 0 -755 0 -755 -195 0 -195 0 -2 732 -3 732 -75
43 c-41 23 -79 48 -84 55 -5 9 6 62 29 141 l38 127 783 0 c620 0 784 -3 784
-12z"/>
</g>
</svg>
