<svg xmlns="http://www.w3.org/2000/svg" viewBox="0 0 212.5 48.13"><defs><style>.cls-1{fill:#5595c7;}</style></defs><title>Asset 22</title><g id="Layer_2" data-name="Layer 2"><g id="Layer_1-2" data-name="Layer 1"><path class="cls-1" d="M14,8.44V46.29H4.31V9.59L0,7.18,2,.52H41.07l1,7.35L34.92,9.65c-.23,6.72-1.44,13.84-3.1,18A12.64,12.64,0,0,1,19.7,35.72v-8.5c1.72,0,5.23-5,5.4-18.78Z"/><path class="cls-1" d="M57.32,46.29H49.56V.52h9.71V35.84l.23.23L78.8,26l3.9,7.87L59.38,45.83Z"/><path class="cls-1" d="M120.67,48.13,98.15,32.34l-.17,0L92,47l-8.79-3.56L101,.52h8.22L127,43.08Zm-9.08-17.35-6.26-15.33H105l-3.51,8.44,9.94,7Z"/><path class="cls-1" d="M154.55,11.49c0-1.67-.69-3-2.24-3a8.56,8.56,0,0,0-3.45.92V46.29h-9.7V11L123.54,8.67,124.86.23l17.28,2.53c2.3-.92,6.72-2.7,10.34-2.7,9.71,0,11.78,8.27,11.78,11.37Z"/><path class="cls-1" d="M200.55,46.29H176.43l-3.5-2.41L164.37,20.1l1-3.62L185.85,0h5.34l20.27,16.48,1,3.56-8.39,23.78Zm-19.64-8.56.17.12h14.76l.17-.12,6.21-17-.06-.29L188.61,9.48h-.23L174.76,20.39l0,.29Z"/></g></g></svg>